<svg xmlns="http://www.w3.org/2000/svg" width="200" height="200" viewBox="0 0 200 200" role="img" aria-label="Capi dormindo"><ellipse cx="100" cy="188" rx="56" ry="6" fill="#0B1324" opacity="0.1"></ellipse><g><ellipse cx="72" cy="178" rx="16" ry="8" fill="#7E5235"></ellipse><ellipse cx="128" cy="178" rx="16" ry="8" fill="#7E5235"></ellipse><ellipse cx="100" cy="140" rx="66" ry="42" fill="#A8724A"></ellipse><ellipse cx="100" cy="152" rx="38" ry="24" fill="#D9A877"></ellipse><circle cx="58" cy="66" r="11" fill="#7E5235"></circle><circle cx="142" cy="66" r="11" fill="#7E5235"></circle><circle cx="58" cy="66" r="5" fill="#5A3A26"></circle><circle cx="142" cy="66" r="5" fill="#5A3A26"></circle><rect x="50" y="58" width="100" height="86" rx="42" fill="#A8724A"></rect><ellipse cx="64" cy="112" rx="8" ry="4.5" fill="#F09A86" opacity="0.55"></ellipse><ellipse cx="136" cy="112" rx="8" ry="4.5" fill="#F09A86" opacity="0.55"></ellipse><g stroke="#1A1410" stroke-width="3" fill="none" stroke-linecap="round"><path d="M73 88 Q80 93 87 88"></path><path d="M113 88 Q120 93 127 88"></path></g><rect x="74" y="100" width="52" height="34" rx="17" fill="#7E5235"></rect><ellipse cx="91" cy="110" rx="3.5" ry="2.5" fill="#3A2518"></ellipse><ellipse cx="109" cy="110" rx="3.5" ry="2.5" fill="#3A2518"></ellipse><path d="M93 122 Q100 129 107 122" stroke="#2A1A10" stroke-width="2.5" fill="none" stroke-linecap="round"></path><g transform="translate(100 42) rotate(12)"><g><circle r="16" fill="#F2A541" stroke="#C97C12" stroke-width="3"></circle><circle r="9" fill="none" stroke="#C97C12" stroke-width="2" opacity="0.7"></circle></g></g></g><g fill="#5B6B85" font-weight="700" font-family="sans-serif"><text x="150" y="58" font-size="16">z</text><text x="162" y="40" font-size="20">z</text><text x="176" y="20" font-size="24">z</text></g></svg>
